<svg xmlns="http://www.w3.org/2000/svg" viewBox="0 0 900 520" font-family="Tahoma,Arial,sans-serif">
  <rect width="900" height="520" fill="#0f172a"/>
  <!-- sidebar -->
  <rect x="0" y="0" width="200" height="520" fill="#1e293b"/>
  <text x="100" y="40" fill="#38bdf8" font-size="14" font-weight="bold" text-anchor="middle">Hotel Face-ID</text>
  <text x="100" y="90" fill="#94a3b8" font-size="11" text-anchor="middle">داشبورد</text>
  <text x="100" y="125" fill="#94a3b8" font-size="11" text-anchor="middle">مهمانان</text>
  <text x="100" y="160" fill="#94a3b8" font-size="11" text-anchor="middle">دوربین‌ها</text>
  <text x="100" y="195" fill="#94a3b8" font-size="11" text-anchor="middle">هشدارها</text>
  <rect x="10" y="210" width="180" height="32" rx="6" fill="#0ea5e9"/>
  <text x="100" y="231" fill="#fff" font-size="12" text-anchor="middle">گزارش‌ها</text>

  <!-- topbar -->
  <rect x="200" y="0" width="700" height="52" fill="#1e293b"/>
  <text x="220" y="32" fill="#e2e8f0" font-size="14" font-weight="bold">گزارش روزانه تردد</text>
  <!-- date pickers -->
  <rect x="560" y="13" width="120" height="26" rx="4" fill="#0f172a" stroke="#334155" stroke-width="1"/>
  <text x="620" y="30" fill="#94a3b8" font-size="10" text-anchor="middle">از: ۱۴۰۳/۰۵/۰۱</text>
  <rect x="688" y="13" width="120" height="26" rx="4" fill="#0f172a" stroke="#334155" stroke-width="1"/>
  <text x="748" y="30" fill="#94a3b8" font-size="10" text-anchor="middle">تا: ۱۴۰۳/۰۵/۳۱</text>
  <rect x="816" y="13" width="64" height="26" rx="4" fill="#0ea5e9"/>
  <text x="848" y="30" fill="#fff" font-size="10" text-anchor="middle">نمایش</text>

  <!-- chart area -->
  <rect x="215" y="62" width="666" height="210" rx="8" fill="#1e293b" stroke="#334155" stroke-width="1"/>
  <text x="548" y="84" fill="#94a3b8" font-size="10" text-anchor="middle">تعداد ورود و خروج در ۳۰ روز گذشته</text>
  <!-- x axis -->
  <line x1="240" y1="245" x2="870" y2="245" stroke="#334155"/>
  <line x1="240" y1="100" x2="240" y2="245" stroke="#334155"/>
  <!-- grid lines -->
  <line x1="240" y1="210" x2="870" y2="210" stroke="#1e3a5f" stroke-dasharray="4"/>
  <line x1="240" y1="175" x2="870" y2="175" stroke="#1e3a5f" stroke-dasharray="4"/>
  <line x1="240" y1="140" x2="870" y2="140" stroke="#1e3a5f" stroke-dasharray="4"/>
  <line x1="240" y1="105" x2="870" y2="105" stroke="#1e3a5f" stroke-dasharray="4"/>
  <!-- y axis labels -->
  <text x="235" y="249" fill="#475569" font-size="8" text-anchor="end">۰</text>
  <text x="235" y="214" fill="#475569" font-size="8" text-anchor="end">۵۰</text>
  <text x="235" y="179" fill="#475569" font-size="8" text-anchor="end">۱۰۰</text>
  <text x="235" y="144" fill="#475569" font-size="8" text-anchor="end">۱۵۰</text>
  <text x="235" y="109" fill="#475569" font-size="8" text-anchor="end">۲۰۰</text>
  <!-- bars (entry=blue, exit=red) pairs for 15 days visible -->
  <g>
    <rect x="248" y="185" width="10" height="60" fill="#38bdf8" opacity="0.8"/>
    <rect x="260" y="195" width="10" height="50" fill="#f87171" opacity="0.8"/>
    <rect x="276" y="170" width="10" height="75" fill="#38bdf8" opacity="0.8"/>
    <rect x="288" y="178" width="10" height="67" fill="#f87171" opacity="0.8"/>
    <rect x="304" y="150" width="10" height="95" fill="#38bdf8" opacity="0.8"/>
    <rect x="316" y="160" width="10" height="85" fill="#f87171" opacity="0.8"/>
    <rect x="332" y="160" width="10" height="85" fill="#38bdf8" opacity="0.8"/>
    <rect x="344" y="170" width="10" height="75" fill="#f87171" opacity="0.8"/>
    <rect x="360" y="120" width="10" height="125" fill="#38bdf8" opacity="0.8"/>
    <rect x="372" y="130" width="10" height="115" fill="#f87171" opacity="0.8"/>
    <rect x="388" y="105" width="10" height="140" fill="#38bdf8" opacity="0.8"/>
    <rect x="400" y="115" width="10" height="130" fill="#f87171" opacity="0.8"/>
    <rect x="416" y="130" width="10" height="115" fill="#38bdf8" opacity="0.8"/>
    <rect x="428" y="140" width="10" height="105" fill="#f87171" opacity="0.8"/>
    <rect x="444" y="155" width="10" height="90" fill="#38bdf8" opacity="0.8"/>
    <rect x="456" y="165" width="10" height="80" fill="#f87171" opacity="0.8"/>
    <rect x="472" y="140" width="10" height="105" fill="#38bdf8" opacity="0.8"/>
    <rect x="484" y="148" width="10" height="97" fill="#f87171" opacity="0.8"/>
    <rect x="500" y="125" width="10" height="120" fill="#38bdf8" opacity="0.8"/>
    <rect x="512" y="135" width="10" height="110" fill="#f87171" opacity="0.8"/>
    <rect x="528" y="145" width="10" height="100" fill="#38bdf8" opacity="0.8"/>
    <rect x="540" y="155" width="10" height="90" fill="#f87171" opacity="0.8"/>
    <rect x="556" y="118" width="10" height="127" fill="#38bdf8" opacity="0.8"/>
    <rect x="568" y="128" width="10" height="117" fill="#f87171" opacity="0.8"/>
    <rect x="584" y="130" width="10" height="115" fill="#38bdf8" opacity="0.8"/>
    <rect x="596" y="140" width="10" height="105" fill="#f87171" opacity="0.8"/>
    <rect x="612" y="160" width="10" height="85" fill="#38bdf8" opacity="0.8"/>
    <rect x="624" y="170" width="10" height="75" fill="#f87171" opacity="0.8"/>
    <rect x="640" y="145" width="10" height="100" fill="#38bdf8" opacity="0.8"/>
    <rect x="652" y="155" width="10" height="90" fill="#f87171" opacity="0.8"/>
  </g>
  <!-- legend -->
  <rect x="780" y="95" width="10" height="10" fill="#38bdf8"/>
  <text x="794" y="104" fill="#94a3b8" font-size="9">ورود</text>
  <rect x="820" y="95" width="10" height="10" fill="#f87171"/>
  <text x="834" y="104" fill="#94a3b8" font-size="9">خروج</text>

  <!-- table -->
  <rect x="215" y="285" width="666" height="32" rx="4" fill="#334155"/>
  <text x="260" y="305" fill="#94a3b8" font-size="10">تاریخ</text>
  <text x="380" y="305" fill="#94a3b8" font-size="10">ورود</text>
  <text x="470" y="305" fill="#94a3b8" font-size="10">خروج</text>
  <text x="560" y="305" fill="#94a3b8" font-size="10">افراد یکتا</text>
  <text x="670" y="305" fill="#94a3b8" font-size="10">میانگین اشغال</text>
  <text x="790" y="305" fill="#94a3b8" font-size="10">خروجی</text>

  <g font-size="10">
    <rect x="215" y="317" width="666" height="30" fill="#1e293b"/>
    <text x="260" y="336" fill="#e2e8f0">۱۴۰۳/۰۵/۳۱</text>
    <text x="380" y="336" fill="#34d399">۱۳۲</text>
    <text x="470" y="336" fill="#f87171">۱۱۸</text>
    <text x="560" y="336" fill="#e2e8f0">۸۷</text>
    <text x="670" y="336" fill="#e2e8f0">۴۷</text>
    <text x="790" y="336" fill="#38bdf8">xlsx · pdf</text>
    <rect x="215" y="347" width="666" height="30" fill="#0f172a"/>
    <text x="260" y="366" fill="#e2e8f0">۱۴۰۳/۰۵/۳۰</text>
    <text x="380" y="366" fill="#34d399">۱۵۸</text>
    <text x="470" y="366" fill="#f87171">۱۴۱</text>
    <text x="560" y="366" fill="#e2e8f0">۱۰۲</text>
    <text x="670" y="366" fill="#e2e8f0">۵۳</text>
    <text x="790" y="366" fill="#38bdf8">xlsx · pdf</text>
    <rect x="215" y="377" width="666" height="30" fill="#1e293b"/>
    <text x="260" y="396" fill="#e2e8f0">۱۴۰۳/۰۵/۲۹</text>
    <text x="380" y="396" fill="#34d399">۱۴۳</text>
    <text x="470" y="396" fill="#f87171">۱۳۷</text>
    <text x="560" y="396" fill="#e2e8f0">۹۶</text>
    <text x="670" y="396" fill="#e2e8f0">۴۹</text>
    <text x="790" y="396" fill="#38bdf8">xlsx · pdf</text>
    <rect x="215" y="407" width="666" height="30" fill="#0f172a"/>
    <text x="260" y="426" fill="#e2e8f0">۱۴۰۳/۰۵/۲۸</text>
    <text x="380" y="426" fill="#34d399">۱۷۲</text>
    <text x="470" y="426" fill="#f87171">۱۶۵</text>
    <text x="560" y="426" fill="#e2e8f0">۱۱۸</text>
    <text x="670" y="426" fill="#e2e8f0">۵۸</text>
    <text x="790" y="426" fill="#38bdf8">xlsx · pdf</text>
  </g>

  <!-- download all button -->
  <rect x="215" y="447" width="140" height="28" rx="5" fill="#1e3a5f" stroke="#0ea5e9" stroke-width="1"/>
  <text x="285" y="465" fill="#38bdf8" font-size="10" text-anchor="middle">⬇ دانلود همه Excel</text>
  <rect x="363" y="447" width="140" height="28" rx="5" fill="#1e3a5f" stroke="#f87171" stroke-width="1"/>
  <text x="433" y="465" fill="#fca5a5" font-size="10" text-anchor="middle">⬇ دانلود همه PDF</text>

  <text x="450" y="510" fill="#475569" font-size="10" text-anchor="middle">Hotel Face-ID — گزارش روزانه</text>
</svg>
